<?xml version="1.0" encoding="UTF-8"?>
<svg version="1.1" xmlns="http://www.w3.org/2000/svg" width="1563" height="1563">
<path d="M0 0 C515.79 0 1031.58 0 1563 0 C1563 515.79 1563 1031.58 1563 1563 C1047.21 1563 531.42 1563 0 1563 C0 1047.21 0 531.42 0 0 Z " fill="#000000" transform="translate(0,0)"/>
<path d="M0 0 C0.80413726 0.00119778 1.60827453 0.00239555 2.43677959 0.00362962 C3.28696699 0.0009778 4.13715438 -0.00167403 5.01310503 -0.00440621 C7.89932662 -0.0121454 10.78550599 -0.01266014 13.67173728 -0.01325613 C15.74707305 -0.01726776 17.82240804 -0.02170547 19.89774206 -0.02653569 C25.63010955 -0.0385412 31.36246861 -0.04415885 37.09484622 -0.04871684 C43.26621893 -0.05465817 49.43758148 -0.0662719 55.60894737 -0.07700735 C69.82476789 -0.10040729 84.0405888 -0.11494629 98.25642223 -0.12723677 C103.1751285 -0.13148986 108.09383439 -0.13605556 113.01254019 -0.14082009 C139.15913539 -0.16608412 165.3057312 -0.18813482 191.45233592 -0.20054823 C197.51356279 -0.20346963 203.57478964 -0.20643713 209.63601646 -0.20945364 C210.38906002 -0.20982455 211.14210359 -0.21019546 211.91796666 -0.21057761 C236.32085539 -0.22272691 260.7236719 -0.25365825 285.12652672 -0.29537517 C310.20979208 -0.33817703 335.29301931 -0.36479127 360.37632217 -0.37002295 C363.92054066 -0.37076338 367.46475908 -0.37167407 371.0089775 -0.37268072 C371.70651292 -0.37287134 372.40404834 -0.37306195 373.12272119 -0.37325834 C384.34249359 -0.37677011 395.56217552 -0.39706017 406.78191471 -0.42347736 C418.06587234 -0.4496445 429.34972731 -0.45692617 440.63372058 -0.44637607 C446.74555298 -0.44118668 452.85709811 -0.44409493 458.96888885 -0.46884161 C464.56716795 -0.49131968 470.16495319 -0.49060484 475.76324087 -0.47163774 C477.78562514 -0.46883572 479.80804279 -0.47444741 481.83037335 -0.48945068 C495.25026626 -0.58290037 506.74733591 0.27911099 517.27297935 9.57814401 C518.17145591 10.36189401 519.06993247 11.14564401 519.9956356 11.95314401 C520.80903404 12.67501901 521.62243247 13.39689401 522.46047935 14.14064401 C523.11919029 14.65626901 523.77790122 15.17189401 524.4565731 15.70314401 C532.97082437 22.37801361 541.2845761 34.46979257 543.46047935 45.14064401 C544.06581016 53.08418322 542.86444867 60.36406511 541.08547935 68.07814401 C540.69489341 69.83783518 540.69489341 69.83783518 540.29641685 71.63307565 C539.53859149 75.02929585 538.76916117 78.42245857 537.99282798 81.81447214 C537.42420446 84.29915223 536.85767706 86.78430385 536.29153404 89.26955026 C536.08838584 90.16116861 535.88523765 91.05278696 535.67593345 91.97142404 C535.46819297 92.88320413 535.26045249 93.79498422 535.04641685 94.73439401 C534.61969936 96.6069618 534.19294109 98.47952029 533.76614341 100.3520698 C533.44426048 101.76434854 533.44426048 101.76434854 533.11587486 103.20515817 C532.67754205 105.1266299 532.23865504 107.04797529 531.79922447 108.96919626 C529.19420913 120.35885133 526.65384896 131.75116254 524.33547935 143.20314401 C522.25695306 153.4700257 520.00329031 163.68462806 517.64797935 173.89064401 C514.64328309 186.91784205 511.70268424 199.95743998 508.83547935 213.01564401 C508.54953407 214.31743601 508.54953407 214.31743601 508.25781211 215.64552683 C505.59910743 227.76723767 503.00689847 239.90026361 500.57522544 252.06984323 C499.23941616 258.67646003 497.73275266 265.22719926 496.14797935 271.77736276 C493.07103356 284.5298312 490.39563487 297.36356233 487.71047935 310.20314401 C486.97050445 313.73019703 486.2297369 317.2570817 485.48825034 320.78381723 C485.03201476 322.95495612 484.57676713 325.12630291 484.12264976 327.29788584 C483.81662834 328.75737901 483.81662834 328.75737901 483.50442466 330.2463569 C483.32631248 331.09790857 483.1482003 331.94946024 482.96469077 332.8268165 C482.50344153 334.94349046 481.99893433 337.04244226 481.46047935 339.14064401 C477.69649563 337.75084577 474.42925038 336.01740432 471.02297935 333.90236276 C469.97416587 333.25388376 468.9253524 332.60540476 467.84475669 331.93727487 C466.72794517 331.24126169 465.61113365 330.54524851 464.46047935 329.82814401 C463.28703612 329.10065343 462.1133679 328.37352564 460.93948326 327.64674753 C458.56531729 326.1760636 456.19249494 324.70324973 453.82083091 323.22853464 C450.85726561 321.38717962 447.89054594 319.55113334 444.92141685 317.71876901 C435.85206783 312.12012877 426.80663051 306.48418034 417.77297935 300.82814401 C407.11755711 294.15760625 396.41715279 287.56198696 385.7065731 280.98048776 C371.69330638 272.36930642 357.72466341 263.68827533 343.7859188 254.95705026 C338.36242321 251.56435975 332.92805087 248.19048288 327.47610435 244.84376901 C326.89382575 244.48624048 326.31154716 244.12871195 325.71162376 243.76034921 C322.90148258 242.0356224 320.08980676 240.31349801 317.27615318 238.59450144 C311.24708737 234.90015793 305.31662901 231.10377345 299.46047935 227.14064401 C301.75674311 204.17800635 307.78491635 181.73919853 312.46047935 159.14064401 C241.18047935 159.63564401 241.18047935 159.63564401 168.46047935 160.14064401 C162.8937692 184.65508701 162.8937692 184.65508701 157.56936607 209.22023386 C157.06776355 211.59968235 156.55902697 213.9775484 156.0503231 216.35548776 C154.51571821 223.59340069 153.05493396 230.75242237 152.46047935 238.14064401 C153.49044029 238.86767526 154.52040122 239.59470651 155.5815731 240.34376901 C157.02037518 241.35939401 158.45917727 242.37501901 159.89797935 243.39064401 C160.66497154 243.93205026 161.43196372 244.47345651 162.2221981 245.03126901 C163.01110435 245.58814401 163.8000106 246.14501901 164.6128231 246.71876901 C165.42090415 247.28917917 166.22898521 247.85958933 167.06155357 248.44728464 C173.77688559 253.18751901 173.77688559 253.18751901 175.87210044 254.66652292 C177.27733788 255.6584359 178.68261198 256.65029695 180.08792076 257.64210886 C183.59446493 260.11698618 187.10041174 262.59270011 190.6050106 265.07033151 C198.21057872 270.44569545 205.8282474 275.80319415 213.46047935 281.14064401 C223.16949984 287.93045471 232.85016589 294.75975982 242.52395591 301.59962839 C250.82253221 307.46620097 259.13213796 313.31638384 267.46047935 319.14064401 C277.16949984 325.93045471 286.85016589 332.75975982 296.52395591 339.59962839 C305.67210521 346.06679576 314.83702209 352.50921824 324.01834068 358.92921823 C330.03305034 363.1366776 336.03327929 367.36413585 342.0268856 371.60158151 C347.49354844 375.46400872 352.97500101 379.30499656 358.46047935 383.14064401 C365.3286649 387.94313101 372.18373099 392.76351002 379.0268856 397.60158151 C384.49354863 401.46400885 389.97502492 405.30496213 395.46047935 409.14064401 C403.78453403 414.96182834 412.08966313 420.80918622 420.38381919 426.67287058 C423.90815451 429.16385387 427.43442597 431.6520936 430.96047935 434.14064401 C432.35501964 435.12500621 433.74955086 436.10938125 435.1440731 437.09376901 C435.84258384 437.58683542 436.54109458 438.07990183 437.26077232 438.58790964 C440.40676841 440.80861276 443.55276451 443.02931589 446.6987606 445.25001901 C447.46575279 445.79142526 448.23274497 446.33283151 449.02297935 446.89064401 C449.76805747 447.41658151 450.5131356 447.94251901 451.28079185 448.48439401 C451.96012779 448.96392526 452.63946372 449.44345651 453.3393856 449.93751901 C454.36934654 450.66455026 455.39930747 451.39158151 456.46047935 452.14064401 C454.46748432 463.18418115 452.28630387 474.15481987 449.71047935 485.07814401 C447.14612386 495.96200493 444.80266234 506.88207408 442.52297935 517.82814401 C440.12149923 529.35263287 437.65516861 540.85375426 435.02297935 552.32814401 C432.15520834 564.83798739 429.50421583 577.38647433 426.89797935 589.95314401 C423.816155 604.81046077 420.56853343 619.60863915 417.10159263 634.38136667 C414.32145293 646.34676609 411.82323274 658.37589102 409.3237606 670.40236276 C409.13094001 671.32873041 408.93811942 672.25509805 408.73945579 673.20953745 C407.77086055 677.86339164 406.80527963 682.51782415 405.8459774 687.173603 C403.7941409 697.08169029 401.59093519 706.93725865 399.21569785 716.7729072 C397.51788248 723.82480666 396.00648661 730.9026986 394.58547935 738.01564401 C392.47832584 748.37876223 390.24634374 758.70519999 387.89797935 769.01564401 C387.75011985 769.66523081 387.60226035 770.3148176 387.44992027 770.98408884 C387.00944172 772.91908917 386.568945 774.85408536 386.1284481 776.78908151 C382.90024501 790.975456 379.76688369 805.18093289 377.03860435 819.47267526 C376.46047935 822.14064401 376.46047935 822.14064401 375.46047935 824.14064401 C327.29406546 824.24337243 279.12764376 824.33889377 230.96115074 824.39470285 C230.24807049 824.39553119 229.53499024 824.39635954 228.8003015 824.39721298 C213.30248644 824.41517117 197.80467022 824.43179215 182.30685227 824.44703599 C174.70653109 824.45451989 167.10621023 824.46229923 159.50588951 824.47023386 C158.74957337 824.47101841 157.99325723 824.47180297 157.21402242 824.4726113 C132.70743792 824.49817131 108.20093653 824.54323309 83.69440236 824.59842734 C58.50702588 824.65505185 33.31969538 824.69196338 8.13225633 824.70413395 C4.57326535 824.70586284 1.01427452 824.70781666 -2.54471627 824.70990747 C-3.24516449 824.71031201 -3.9456127 824.71071655 -4.66728663 824.71113335 C-15.93456102 824.71821878 -27.2016931 824.74603387 -38.4689095 824.78163622 C-49.80117411 824.81700044 -61.13325523 824.82995664 -72.46558827 824.82165228 C-78.60379626 824.81780738 -84.74158715 824.82372227 -90.87972108 824.85587686 C-96.50215532 824.88511473 -102.1238927 824.8865238 -107.74635929 824.86603738 C-109.77752899 824.86350612 -111.8087425 824.87108437 -113.83982623 824.88994311 C-130.51568881 825.03574375 -140.86605521 821.4155097 -153.53952065 810.14064401 C-154.22659096 809.54767526 -154.91366128 808.95470651 -155.6215519 808.34376901 C-164.19090353 800.43359828 -174.18528944 786.93403117 -174.6684269 774.94069284 C-174.53710632 771.06947149 -173.93251116 767.72508826 -173.0356144 763.96095651 C-172.87736687 763.28513529 -172.71911934 762.60931406 -172.55607644 761.9130134 C-172.21478352 760.45781838 -171.87017416 759.0033979 -171.52255288 757.54970163 C-170.5772548 753.5918873 -169.65947869 749.62766766 -168.7387394 745.66408151 C-168.55010323 744.85459055 -168.36146706 744.04509958 -168.16711465 743.21107858 C-166.44375613 735.79062469 -164.8484818 728.34748308 -163.28952065 720.89064401 C-160.18093273 706.06080464 -156.96296275 691.25568009 -153.72702065 676.45314401 C-153.20553551 674.06691371 -152.68405114 671.68068324 -152.16256753 669.29445261 C-151.38071676 665.71715998 -150.5988017 662.13988145 -149.81671181 658.56264108 C-147.29975962 647.04868917 -144.79259276 635.53262051 -142.28952065 624.01564401 C-142.08386483 623.06952249 -141.87820901 622.12340097 -141.66632119 621.1486091 C-138.78754065 607.90314927 -135.91880216 594.65554085 -133.05691567 581.4064216 C-129.85395014 566.57921721 -126.63519668 551.75546155 -123.40866128 536.93336862 C-121.41672352 527.78175638 -119.42753253 518.62958529 -117.45037881 509.47476572 C-116.53509008 505.23732014 -115.61813854 501.00023511 -114.70108071 496.76317209 C-114.26393242 494.74115454 -113.82759747 492.71896095 -113.39212075 490.69658273 C-112.78708978 487.88711649 -112.1792238 485.07827703 -111.57077065 482.26955026 C-111.39411873 481.44559763 -111.21746682 480.62164499 -111.03546181 479.77272409 C-110.03489596 475.16912655 -108.88516118 470.65583995 -107.53952065 466.14064401 C-99.99008574 470.1478837 -92.69503765 474.44146398 -85.47702065 479.01564401 C-83.36165401 480.34719769 -81.24574972 481.67789754 -79.1293644 483.00783151 C-77.50297036 484.03021921 -77.50297036 484.03021921 -75.84371987 485.0732612 C-70.42878924 488.46129375 -64.9840795 491.80050902 -59.53952065 495.14064401 C-50.19044643 500.88056013 -40.87461735 506.67076152 -31.57858315 512.49611276 C-24.25450454 517.08087063 -16.90294817 521.61939458 -9.53952065 526.14064401 C-1.18338198 531.27143225 7.15146195 536.4338882 15.46047935 541.64064401 C25.97923054 548.23127053 36.54427249 554.74454103 47.1206356 561.24220651 C56.24871794 566.85107885 65.35515262 572.49493063 74.46047935 578.14064401 C71.85356549 593.18053164 68.48475989 608.0211218 64.98611411 622.87331003 C61.61160164 637.26297832 58.5598411 651.67695583 55.46047935 666.14064401 C103.97047935 666.14064401 152.48047935 666.14064401 202.46047935 666.14064401 C203.12047935 662.18064401 203.78047935 658.22064401 204.46047935 654.14064401 C204.93743017 651.630934 205.42882505 649.12388251 205.9409481 646.62111276 C206.14112037 645.641317 206.14112037 645.641317 206.34533653 644.64172739 C206.77672848 642.53660733 207.2119917 640.43231673 207.64797935 638.32814401 C207.79943412 637.59376108 207.95088889 636.85937814 208.10693321 636.10274118 C210.5658895 624.19346796 213.18313967 612.32609157 215.88919029 600.47072214 C217.95038765 591.43514414 219.95057697 582.38878813 221.89797935 573.32814401 C222.15716148 572.12883249 222.41634361 570.92952097 222.68337974 569.69386667 C222.91790855 568.59735788 223.15243736 567.50084909 223.3940731 566.37111276 C223.60088706 565.40584665 223.80770103 564.44058054 224.02078208 563.44606394 C224.52292812 561.20437531 224.52292812 561.20437531 224.46047935 559.14064401 C222.1813892 557.42902584 219.89692805 555.83667574 217.52297935 554.26564401 C216.03530181 553.26277297 214.5483444 552.25883298 213.06204185 551.25392526 C212.29408286 550.7365278 211.52612388 550.21913034 210.73489341 549.68605417 C207.2557512 547.32205994 203.82673508 544.88938694 200.39797935 542.45314401 C193.67269419 537.68815784 186.91692033 532.96838908 180.14797935 528.26564401 C170.3877947 521.48438427 160.64491267 514.67894568 150.91213951 507.85841745 C146.76261507 504.95102311 142.61145629 502.045964 138.46047935 499.14064401 C136.79380504 497.97398827 135.12713837 496.80732161 133.46047935 495.64064401 C132.63547935 495.06314401 131.81047935 494.48564401 130.96047935 493.89064401 C123.46047936 488.64064402 123.46047936 488.64064402 120.96121177 486.8911323 C119.29213427 485.72279434 117.62302613 484.55450017 115.95388755 483.38624948 C111.82385597 480.49550913 107.69433489 477.60404548 103.5659481 474.71095651 C94.70840309 468.50503326 85.84089005 462.31381121 76.96047935 456.14064401 C67.26361289 449.39992222 57.58338752 442.63583011 47.91213951 435.85841745 C43.76261508 432.95102312 39.61147521 430.04593693 35.46047935 427.14064401 C30.49485684 423.66519177 25.52952511 420.18932969 20.5659481 416.71095651 C11.6468325 410.46198506 2.71652332 404.22961217 -6.22702065 398.01564401 C-13.52443288 392.94500016 -20.80229593 387.84870572 -28.05465737 382.7138862 C-34.93510168 377.84846412 -41.85594082 373.04155189 -48.77682534 368.23390573 C-56.30849377 363.00099411 -63.82562265 357.74766055 -71.3337101 352.48097605 C-72.4951957 351.66669138 -72.4951957 351.66669138 -73.68014565 350.83595651 C-74.35593667 350.36174265 -75.03172768 349.88752878 -75.72799721 349.3989448 C-77.31885771 348.29391852 -78.92784971 347.21509131 -80.53952065 346.14064401 C-79.88882338 340.35963889 -78.92320598 334.73249015 -77.71920815 329.04298776 C-77.53995293 328.1843664 -77.36069771 327.32574503 -77.17601052 326.44110483 C-76.5924761 323.65267536 -76.00379431 320.86536583 -75.41452065 318.07814401 C-75.21255074 317.11769174 -75.01058083 316.15723947 -74.80249062 315.16768259 C-72.0185648 301.9295704 -69.13685484 288.71885821 -66.12374917 275.53102487 C-63.96683118 266.08123133 -61.89108656 256.61637871 -59.85202065 247.14064401 C-59.17902202 244.01430348 -58.50588634 240.88799253 -57.8324894 237.76173776 C-57.65496636 236.9375686 -57.47744332 236.11339945 -57.29454079 235.26425546 C-54.77347144 223.57237857 -52.21660091 211.88828197 -49.66452065 200.20314401 C-48.62533083 195.44405722 -47.58627577 190.68494103 -46.54733315 185.92580026 C-46.16399064 184.16981012 -46.16399064 184.16981012 -45.77290383 182.37834543 C-43.35512929 171.3005544 -40.94630043 160.22082809 -38.53952065 149.14064401 C-35.13744428 133.479231 -31.72592539 117.81989974 -28.30810586 102.16191477 C-26.29446903 92.93644383 -24.28185191 83.71075036 -22.26919594 74.4850654 C-21.55101065 71.19330769 -20.8326255 67.90159363 -20.11422768 64.6098823 C-18.77543888 58.4746046 -17.43833876 52.33896027 -16.10202065 46.20314401 C-15.89424996 45.24985208 -15.68647927 44.29656015 -15.4724125 43.31438059 C-12.86906811 31.36411065 -10.29160077 19.41018224 -7.89523354 7.41627878 C-6.39838735 0.03122363 -6.39838735 0.03122363 0 0 Z " fill="#19B6FE" transform="translate(863.5395206511021,328.8593559861183)"/>
<path d="M0 0 C102.63 0 205.26 0 311 0 C318.60154145 23.89055884 318.60154145 23.89055884 321.79977417 34.15371704 C323.74000667 40.37844348 325.70456081 46.59553303 327.66589546 52.81363487 C328.40273197 55.14975764 329.13926256 57.48597666 329.87571716 59.82221985 C331.9654628 66.45135794 334.05561447 73.08036793 336.14624023 79.70922852 C337.43620827 83.79947379 338.7257341 87.88985826 340.01499748 91.9803257 C340.49996362 93.51868713 340.98509237 95.05699731 341.47039986 96.59525108 C344.06905696 104.83220165 346.65056036 113.07361937 349.18164062 121.33166504 C350.25433817 124.82929268 351.34434483 128.32121203 352.4375 131.8125 C352.86328932 133.17317456 353.28907032 134.53385172 353.71484375 135.89453125 C353.92737793 136.57338379 354.13991211 137.25223633 354.35888672 137.95166016 C355.1874728 140.5989706 356.01487521 143.24665007 356.84210873 145.89438343 C357.45532064 147.85700129 358.06866612 149.81957742 358.68202209 151.78215027 C359.50721096 154.42267028 360.33198857 157.06331746 361.15647888 159.70405579 C363.92157422 168.55843201 366.69704583 177.40948896 369.48069954 186.2580471 C370.18387634 188.49337243 370.8868212 190.72877059 371.58970642 192.96418762 C373.58396569 199.30655242 375.57845976 205.64884331 377.57348633 211.9909668 C378.80506148 215.90616029 380.03624047 219.82147818 381.26717949 223.73687172 C381.72983682 225.20824067 382.19263726 226.67956464 382.65559578 228.15083885 C385.18699016 236.19572249 387.70132579 244.24539537 390.1739502 252.30859375 C391.24975394 255.81373945 392.34192491 259.31348337 393.4375 262.8125 C393.86328932 264.17317456 394.28907032 265.53385172 394.71484375 266.89453125 C395.03364502 267.91281006 395.03364502 267.91281006 395.35888672 268.95166016 C396.61795766 272.97435826 397.87460421 276.99781448 399.13134766 281.02124023 C400.13403416 284.23084672 401.13803685 287.4400219 402.14453125 290.6484375 C406.14637306 303.41685586 410.07157773 316.20883453 414 329 C415.62668441 323.56556106 416.88895073 318.1106931 418.0625 312.5625 C420.25450406 302.3328633 422.54003561 292.12614378 424.84750366 281.92205811 C428.45244177 265.97739056 431.96228728 250.01735137 435.35449219 234.02587891 C436.34379946 229.38840752 437.36037871 224.75698499 438.375 220.125 C439.89847666 213.16062455 441.38470147 206.18905125 442.84375 199.2109375 C443.00743576 198.42834564 443.17112152 197.64575378 443.33976746 196.83944702 C443.58960136 195.64492416 443.58960136 195.64492416 443.84448242 194.42626953 C444.18795055 192.78417179 444.53145676 191.14208202 444.875 189.5 C445.0464151 188.68061951 445.2178302 187.86123901 445.3944397 187.01702881 C447.95163388 174.81016114 450.6396991 162.64144266 453.42529297 150.48461914 C455.58548107 140.99438904 457.56788032 131.47627361 459.5 121.9375 C461.9192438 109.99677368 464.55423057 98.12762874 467.37060547 86.27294922 C470.39681913 73.47130251 473.09570947 60.60585618 475.79310608 47.73194885 C477.23288409 40.86899816 478.72287936 34.01729751 480.22705078 27.16821289 C482.20771143 18.12319591 484.09217441 9.06217156 486 0 C514.71 0 543.42 0 573 0 C572.37342422 6.26575777 571.75668985 11.79364225 570.43359375 17.83984375 C570.27935944 18.55097824 570.12512512 19.26211273 569.96621704 19.99479675 C569.46226094 22.31029992 568.9500423 24.62388366 568.4375 26.9375 C568.0764116 28.5876557 567.71565943 30.23788501 567.35522461 31.88818359 C564.84131938 43.35976106 562.21988832 54.80567222 559.57131958 66.24676514 C556.45068064 79.74958528 553.60278151 93.3038998 550.79275513 106.87432861 C548.63754275 117.27705109 546.4483261 127.66138268 544 138 C541.3182299 149.3336151 538.93177431 160.72291354 536.5625 172.125 C533.08871114 188.84000994 529.51891621 205.52842353 525.83837891 222.19921875 C524.40581727 228.69372068 522.98401196 235.1905728 521.5625 241.6875 C521.41955505 242.34044037 521.27661011 242.99338074 521.1293335 243.66610718 C518.56324377 255.38905323 516.02541084 267.1180268 513.49304199 278.84829712 C510.82946756 291.18492852 508.14463492 303.51675627 505.44238281 315.8449707 C503.91622216 322.80840948 502.39690038 329.77323977 500.88818359 336.74047852 C498.98928788 345.50925056 497.06155453 354.2677243 495 363 C495.58072266 363.2774707 496.16144531 363.55494141 496.75976562 363.84082031 C498.9118472 364.9543865 500.84797026 366.17564524 502.84375 367.546875 C503.95544556 368.30859009 503.95544556 368.30859009 505.08959961 369.08569336 C505.88503174 369.63491455 506.68046387 370.18413574 507.5 370.75 C508.33732666 371.32564697 509.17465332 371.90129395 510.03735352 372.49438477 C518.55314909 378.35944773 527.02202739 384.29139469 535.48388672 390.23388672 C539.65291862 393.16021864 543.8266852 396.07978099 548 399 C549.66668961 400.16663389 551.33335627 401.33330057 553 402.5 C553.825 403.0775 554.65 403.655 555.5 404.25 C569.66666667 414.16666667 583.83333333 424.08333333 598 434 C596.32123002 444.61622161 594.18441853 455.12765209 591.90994263 465.62988281 C591.59552376 467.08245291 591.28291526 468.53541608 590.97213745 469.98876953 C590.52758961 472.06283322 590.07549997 474.13510781 589.62109375 476.20703125 C589.3573999 477.4185083 589.09370605 478.62998535 588.82202148 479.87817383 C588.12527415 482.52424099 587.34788877 484.63707519 586 487 C582.27848962 485.622517 579.03832616 483.92153949 575.66796875 481.83203125 C574.63478516 481.19394531 573.60160156 480.55585937 572.53710938 479.8984375 C571.43173828 479.21007812 570.32636719 478.52171875 569.1875 477.8125 C568.02036778 477.08954421 566.85304703 476.36689271 565.68554688 475.64453125 C557.12235025 470.34095057 548.58287782 464.99905286 540.0480957 459.64990234 C531.60501685 454.3626812 523.11766117 449.14922036 514.62304688 443.9453125 C506.23622 438.79434796 497.92739846 433.52804354 489.67529297 428.16381836 C488.3974292 427.34022827 488.3974292 427.34022827 487.09375 426.5 C485.97516602 425.77296875 485.97516602 425.77296875 484.83398438 425.03125 C483.06012301 423.83662366 483.06012301 423.83662366 481 424 C480.764021 425.13501953 480.52804199 426.27003906 480.28491211 427.43945312 C475.87142726 448.65464347 471.41578167 469.85744223 466.75390625 491.01953125 C464.76941915 500.02849067 462.8215358 509.04527675 460.875 518.0625 C460.19538289 521.20965062 459.51567041 524.35678064 458.8359375 527.50390625 C458.67454788 528.25122009 458.51315826 528.99853394 458.34687805 529.76849365 C456.88091892 536.5549823 455.40597184 543.33949854 453.92871094 550.12353516 C452.50179539 556.68099958 451.08311827 563.24022146 449.66654968 569.79992676 C446.60131093 583.99402333 443.5347596 598.18784984 440.4375 612.375 C440.29441406 613.03058899 440.15132812 613.68617798 440.00390625 614.3616333 C438.20223732 622.60786996 436.35835003 630.84367119 434.47875977 639.07250977 C431.33785602 652.83159026 428.37379401 666.62017148 425.5 680.4375 C420.57636887 704.10846498 415.42833643 727.72357942 410.125 751.3125 C409.97343445 751.9883313 409.8218689 752.6641626 409.66571045 753.36047363 C409.23977078 755.25762373 408.81135117 757.15421654 408.3828125 759.05078125 C408.13934082 760.13012939 407.89586914 761.20947754 407.64501953 762.3215332 C407 765 407 765 406 768 C404.59884023 792.76280442 413.99350006 811.55917819 430 830 C430.515625 830.59941406 431.03125 831.19882813 431.5625 831.81640625 C439.90054478 840.8006495 451.13531198 847.54548316 462 853 C460.87406985 856.37779045 460.20984612 856.85269787 457.4140625 858.86328125 C456.65818848 859.41290527 455.90231445 859.9625293 455.12353516 860.52880859 C454.29901855 861.11742676 453.47450195 861.70604492 452.625 862.3125 C450.87490718 863.5819033 449.12490974 864.85143809 447.375 866.12109375 C446.02921875 867.09151611 446.02921875 867.09151611 444.65625 868.08154297 C440.62915036 870.99008607 436.62550915 873.93003974 432.625 876.875 C431.85800781 877.43775635 431.09101562 878.0005127 430.30078125 878.58032227 C425.9339548 881.79544335 421.60788711 885.05712736 417.3125 888.3671875 C416.3642334 889.09695801 415.4159668 889.82672852 414.43896484 890.57861328 C412.60187845 891.99619495 410.76867815 893.41883112 408.93994141 894.84716797 C407.68963135 895.81227295 407.68963135 895.81227295 406.4140625 896.796875 C405.6813916 897.36760742 404.9487207 897.93833984 404.19384766 898.52636719 C401.87774077 900.08212294 399.61925937 901.05810168 397 902 C389.04825211 880.25062655 381.32084399 858.42546846 373.6875 836.5625 C367.14804788 817.8335674 360.57852563 799.11643211 353.91430664 780.431427 C348.86725958 766.27906566 343.86897494 752.11015245 338.89248657 737.93283081 C332.22909729 718.94980763 325.5010336 699.99214759 318.6875 681.0625 C311.63849845 661.47572976 304.72237668 641.84540047 297.875 622.1875 C297.64221344 621.5192218 297.40942688 620.8509436 297.16958618 620.16241455 C296.7006391 618.81615011 296.23169771 617.46988369 295.76276207 616.12361526 C294.60633382 612.80370527 293.44974365 609.48385173 292.29296875 606.1640625 C292.06679241 605.51493141 291.84061607 604.86580032 291.60758591 604.1969986 C287.17281653 591.47179534 282.69298807 578.76282345 278.1875 566.0625 C277.84489136 565.09663971 277.50228271 564.13077942 277.14929199 563.13565063 C275.44571642 558.33406562 273.74103079 553.53287577 272.03564453 548.73193359 C268.56043028 538.94806169 265.092324 529.1616704 261.625 519.375 C261.28113251 518.40460785 260.93726501 517.4342157 260.58297729 516.43441772 C253.80227283 497.2967128 247.06121842 478.14510532 240.33056641 458.98974609 C238.53130519 453.86928167 236.72966881 448.74965971 234.92602539 443.6307373 C234.0755131 441.21452449 233.22797206 438.79728895 232.38085938 436.37988281 C231.92597953 435.08912281 231.47092011 433.79842608 231.015625 432.5078125 C230.64211914 431.44449707 230.26861328 430.38118164 229.88378906 429.28564453 C229.20379607 427.06896148 229.20379607 427.06896148 228 426 C227.69932617 427.4063269 227.69932617 427.4063269 227.39257812 428.84106445 C223.66583276 446.25386481 219.88542841 463.65012514 215.875 481 C213.18512711 492.64010471 210.66209398 504.30018424 208.28857422 516.00976562 C206.34036168 525.54251239 204.19349965 535.02152728 202 544.5 C199.22337037 556.50079266 196.60318789 568.517218 194.14404297 580.58789062 C192.32310834 589.5066536 190.38284561 598.39360243 188.39013672 607.27539062 C186.21035876 617.00639166 184.0999383 626.75154009 182 636.5 C179.47092791 648.23603451 176.90866162 659.96345849 174.2890625 671.6796875 C172.14864689 681.27703491 170.07187133 690.88768255 168 700.5 C165.71695071 711.09001411 163.42217892 721.67672832 161.0625 732.25 C158.75305264 742.59868304 156.46378959 752.95164869 154.18893433 763.3079834 C153.82827024 764.94971838 153.46739032 766.59140597 153.10623169 768.23303223 C149.01963243 786.811026 145.02003852 805.40732184 141 824 C72.36 824 3.72 824 -67 824 C-65.79791597 817.38853783 -64.58381283 810.8406013 -63.1171875 804.29296875 C-62.75511596 802.65771728 -62.39305591 801.02246326 -62.03100586 799.38720703 C-61.74868607 798.11759125 -61.74868607 798.11759125 -61.46066284 796.82232666 C-58.19028578 782.10929372 -55.00949144 767.38065303 -51.9375 752.625 C-49.37832488 740.34404546 -46.69613305 728.09845186 -43.875 715.875 C-39.90571668 698.6742973 -36.17784394 681.42933867 -32.56787109 664.14944458 C-31.71303209 660.05772878 -30.85696233 655.9662716 -30 651.875 C-29.74234863 650.64469055 -29.74234863 650.64469055 -29.47949219 649.38952637 C-27.20058602 638.52341423 -24.81966444 627.68980298 -22.2824707 616.88061523 C-20.14943347 607.75417666 -18.15771022 598.60014574 -16.1875 589.4375 C-15.93709961 588.27309891 -15.93709961 588.27309891 -15.68164062 587.08517456 C-15.42930664 585.91173996 -15.42930664 585.91173996 -15.171875 584.71459961 C-14.82686768 583.11050469 -14.48181516 581.5064195 -14.13671875 579.90234375 C-13.96320892 579.09578842 -13.7896991 578.28923309 -13.6109314 577.45823669 C-11.60201642 568.13266439 -9.55064006 558.81646784 -7.5 549.5 C-4.64089293 536.50548728 -1.80427258 523.50645665 1 510.5 C3.99155778 496.62489851 7.02311975 482.75893052 10.07275391 468.89648438 C12.90648543 456.01280665 15.71061566 443.12306858 18.48974609 430.22750854 C20.38152823 421.45107473 22.28594865 412.6776575 24.21875 403.91015625 C24.40595108 403.06086548 24.59315216 402.21157471 24.786026 401.33654785 C25.16650446 399.61069307 25.54700278 397.88484266 25.92752075 396.15899658 C26.1164389 395.30215271 26.30535706 394.44530884 26.5 393.5625 C26.68867645 392.70694519 26.87735291 391.85139038 27.07174683 390.96990967 C29.81126619 378.53694311 32.4646558 366.08827215 35.0625 353.625 C37.62247322 341.3442017 40.30386243 329.09847145 43.125 316.875 C47.09427958 299.67431351 50.82218396 282.42937682 54.43211365 265.14949036 C55.28696514 261.0577609 56.14319545 256.96632089 57 252.875 C57.17143524 252.05579071 57.34287048 251.23658142 57.51950073 250.39254761 C59.81034182 239.46021017 62.21877177 228.56570943 64.78344727 217.69384766 C66.83550501 208.91156615 68.6474676 200.08840064 70.4375 191.25 C72.67026889 180.22857084 75.03935079 169.25705067 77.625 158.3125 C77.91375 157.08942139 78.2025 155.86634277 78.5 154.60620117 C78.78230469 153.41099854 79.06460938 152.2157959 79.35546875 150.984375 C80.92174715 144.35223657 82.45578932 137.7140574 83.9375 131.0625 C84.14906738 130.13928955 84.36063477 129.2160791 84.57861328 128.26489258 C86.77849995 119.87176406 86.77849995 119.87176406 84.73364258 111.81518555 C82.88954217 109.23281172 80.94166131 106.7726939 78.9375 104.3125 C77.45863293 102.43829059 75.98079238 100.56327079 74.50390625 98.6875 C73.74996582 97.74003906 72.99602539 96.79257812 72.21923828 95.81640625 C68.8530584 91.54443143 65.61625673 87.1795089 62.375 82.8125 C56.94946152 75.54677888 51.42601642 68.36425964 45.84277344 61.21923828 C42.00733563 56.30774103 38.23815632 51.35331173 34.515625 46.35546875 C31.17048489 41.87707137 27.76721954 37.44275746 24.375 33 C18.746987 25.62204445 13.13883558 18.22960705 7.5625 10.8125 C6.91780762 9.95720703 6.27311523 9.10191406 5.60888672 8.22070312 C4.72160889 7.03831055 4.72160889 7.03831055 3.81640625 5.83203125 C3.03438843 4.79139526 3.03438843 4.79139526 2.23657227 3.72973633 C1 2 1 2 0 0 Z " fill="#FEFEFE" transform="translate(255,325)"/>
<path d="M0 0 C0.80528065 0.00176947 1.61056131 0.00353894 2.44024441 0.00536203 C3.29163019 0.0033094 4.14301597 0.00125677 5.02020133 -0.00085807 C7.91046344 -0.00657131 10.80067854 -0.00506553 13.69094536 -0.0036521 C15.76913162 -0.00623327 17.84731738 -0.00924574 19.92550245 -0.0126555 C25.66559544 -0.02075811 31.40567595 -0.02251688 37.14577398 -0.02325296 C43.325248 -0.02509792 49.50471546 -0.0326425 55.68418571 -0.03938818 C69.91703519 -0.05370622 84.14988057 -0.05950155 98.38273552 -0.06408012 C105.41354747 -0.06641411 112.44435859 -0.07001658 119.4751699 -0.0737755 C143.53407103 -0.08661418 167.5929717 -0.09733224 191.65187618 -0.1007781 C193.16308433 -0.10099974 194.67429247 -0.10122152 196.18550062 -0.10144345 C197.70040664 -0.1016641 199.21531266 -0.10188458 200.73021868 -0.1021049 C203.76949065 -0.10254746 206.80876262 -0.10299457 209.84803459 -0.10344458 C210.60160119 -0.10355397 211.35516779 -0.10366336 212.13156975 -0.10377606 C236.56239591 -0.10740616 260.99319238 -0.1233228 285.42400717 -0.14663494 C311.24237007 -0.17122611 337.06071599 -0.18495065 362.87909093 -0.18614602 C365.71298664 -0.18631748 368.54688234 -0.18653291 371.38077804 -0.18678045 C372.07858315 -0.18683622 372.77638826 -0.18689199 373.49533898 -0.18694945 C384.73075102 -0.18810065 395.96613265 -0.19912874 407.20153442 -0.21366751 C418.49437161 -0.2280279 429.78717032 -0.23101945 441.08001766 -0.22322753 C447.1993842 -0.21931327 453.3186483 -0.22028843 459.43800232 -0.23428488 C465.03843765 -0.24697746 470.63869309 -0.24586714 476.23912802 -0.23369417 C478.2668196 -0.23172908 480.29452372 -0.23485285 482.32219765 -0.24353853 C485.07648734 -0.25459105 487.83013768 -0.24717074 490.58440945 -0.235147 C491.37330194 -0.24274219 492.16219443 -0.25033739 492.97499275 -0.25816274 C498.40364806 -0.2069351 502.45897464 0.99657164 507.45277092 3.1367898 C504.44245348 4.07102624 503.58626824 4.18128891 500.45277092 3.1367898 C497.692493 3.03694093 494.95735175 2.99460593 492.19685528 2.9981246 C491.34076503 2.99528238 490.48467479 2.99244016 489.60264242 2.98951182 C486.70850355 2.98113113 483.81440453 2.97989397 480.92025444 2.97857141 C478.83464012 2.97400836 476.74902671 2.96900872 474.66341439 2.96360785 C468.91239967 2.94998811 463.16139089 2.94259732 457.41036424 2.93618119 C451.21607798 2.92819405 445.02180413 2.91449049 438.82752678 2.90146875 C428.08890112 2.87968202 417.35027569 2.86151101 406.61163971 2.84586382 C395.34649691 2.82943438 384.08136056 2.81095651 372.81622574 2.78973055 C372.11632683 2.78841294 371.41642793 2.78709533 370.69531997 2.7857378 C367.1410241 2.7790359 363.58672831 2.77229729 360.03243255 2.76554454 C334.84401968 2.71775556 309.65560081 2.67457799 284.46717522 2.63410425 C259.99386348 2.59476905 235.52055672 2.55335009 211.04725334 2.50910425 C209.91609785 2.50706046 209.91609785 2.50706046 208.76209074 2.50497537 C201.18921257 2.49129024 193.61633448 2.47756268 186.04345644 2.46380403 C170.61602683 2.43577595 155.18859673 2.40803108 139.7611663 2.3804574 C138.69712625 2.3785551 138.69712625 2.3785551 137.61159044 2.37661437 C90.22532533 2.29192934 42.83904895 2.21386721 -4.54722908 2.1367898 C-4.54722908 3.7867898 -4.54722908 5.4367898 -4.54722908 7.1367898 C-5.20722908 7.1367898 -5.86722908 7.1367898 -6.54722908 7.1367898 C-6.58977264 5.13724234 -6.58803691 3.13637344 -6.54722908 1.1367898 C-4.76618722 -0.64425206 -2.37234945 0.0098815 0 0 Z " fill="#2185B2" transform="translate(863.5472290813923,328.8632102012634)"/>
<path d="M0 0 C0.33 0 0.66 0 1 0 C1 1.98 1 3.96 1 6 C48.52 6 96.04 6 145 6 C145 4.02 145 2.04 145 0 C145.66 0 146.32 0 147 0 C146.67 2.64 146.34 5.28 146 8 C97.49 8 48.98 8 -1 8 C-0.67 5.36 -0.34 2.72 0 0 Z " fill="#02314C" transform="translate(920,987)"/>
<path d="M0 0 C47.52 0 95.04 0 144 0 C142.875 11.25 142.875 11.25 142 15 C141.67 15 141.34 15 141 15 C141.14148989 13.3954444 141.28835686 11.79136233 141.4375 10.1875 C141.55931641 8.84751953 141.55931641 8.84751953 141.68359375 7.48046875 C142 5 142 5 143 2 C96.14 2 49.28 2 1 2 C1 2.99 1 3.98 1 5 C0.34 5 -0.32 5 -1 5 C-0.67 3.35 -0.34 1.7 0 0 Z " fill="#092F45" transform="translate(1032,488)"/>
<path d="M0 0 C0.99 0.33 1.98 0.66 3 1 C0.27547391 16.71841978 -3.28674144 32.22505078 -6.91381836 47.75415039 C-7.10893005 48.58954849 -7.30404175 49.42494659 -7.50506592 50.28565979 C-7.87459238 51.86536064 -8.24510011 53.44483238 -8.61676025 55.02403259 C-9.47250234 58.67221654 -10.29516679 62.31945615 -11 66 C-11.33 66 -11.66 66 -12 66 C-12.02689216 64.52093108 -12.04634621 63.04172517 -12.0625 61.5625 C-12.07990234 60.32693359 -12.07990234 60.32693359 -12.09765625 59.06640625 C-12 57 -12 57 -11 56 C-10.76924918 54.65252916 -10.58846937 53.29622435 -10.4375 51.9375 C-10.2209375 49.9884375 -10.2209375 49.9884375 -10 48 C-9.34 48 -8.68 48 -8 48 C-8.061875 46.700625 -8.12375 45.40125 -8.1875 44.0625 C-8.20123731 39.6734282 -7.24481229 36.32796222 -5.72265625 32.25 C-4.98367532 29.94917288 -4.69612959 27.90363073 -4.5 25.5 C-4.23533472 22.30747503 -3.62376416 19.68600534 -2.5 16.6875 C-0.52384826 11.25067276 -0.28158924 5.73859452 0 0 Z " fill="#2BA3D9" transform="translate(935,906)"/>
<path d="M0 0 C0.33 0 0.66 0 1 0 C1.02688151 1.64574566 1.04634123 3.29161413 1.0625 4.9375 C1.07410156 5.85402344 1.08570313 6.77054688 1.09765625 7.71484375 C1 10 1 10 0 11 C-0.20604085 12.32781878 -0.3662959 13.66295895 -0.5 15 C-0.88888889 18.88888889 -0.88888889 18.88888889 -2 20 C-2.185625 21.794375 -2.185625 21.794375 -2.375 23.625 C-2.84411507 27.88548769 -4.15389572 31.14726063 -6 35 C-7.50747858 31.03249116 -6.51035782 27.86890014 -5.56640625 23.828125 C-5.40961899 23.1457074 -5.25283173 22.46328979 -5.09129333 21.76019287 C-4.59018527 19.58805588 -4.07653991 17.41910904 -3.5625 15.25 C-3.21987132 13.77493255 -2.87806488 12.29967385 -2.53710938 10.82421875 C-1.70092446 7.21388049 -0.85347305 3.60629546 0 0 Z " fill="#2CA5DC" transform="translate(744,848)"/>
<path d="M0 0 C0.85127868 3.12423387 1.0198876 5.45902706 0.625 8.6875 C0.53476563 9.47511719 0.44453125 10.26273438 0.3515625 11.07421875 C0 13 0 13 -1 14 C-1.20604085 15.32781878 -1.3662959 16.66295895 -1.5 18 C-1.88888889 21.88888889 -1.88888889 21.88888889 -3 23 C-3.27953219 25.0587768 -3.44734351 27.11728432 -3.62109375 29.1875 C-3.74613281 29.785625 -3.87117188 30.38375 -4 31 C-4.66 31.33 -5.32 31.66 -6 32 C-5.71817692 21.06014043 -2.66596627 10.54782576 0 0 Z " fill="#031E33" transform="translate(1373,536)"/>
<path d="M0 0 C0.33 0 0.66 0 1 0 C1.15255984 5.84370508 0.63805068 11.19956219 -0.4375 16.9375 C-0.57220703 17.70384766 -0.70691406 18.47019531 -0.84570312 19.25976562 C-1.86314597 24.86314597 -1.86314597 24.86314597 -3 26 C-3.27953219 28.0587768 -3.44734351 30.11728432 -3.62109375 32.1875 C-3.74613281 32.785625 -3.87117188 33.38375 -4 34 C-4.99 34.495 -4.99 34.495 -6 35 C-5.67436518 27.46155382 -4.29417489 20.39335056 -2.45996094 13.10375977 C-1.36887992 8.74300465 -0.56062528 4.46164283 0 0 Z " fill="#021C31" transform="translate(1407,378)"/>
<path d="M0 0 C1.52824248 3.05648496 0.32211053 5.78829007 -0.43359375 8.9765625 C-0.59038101 9.66181 -0.74716827 10.3470575 -0.90870667 11.05307007 C-1.41185408 13.24525822 -1.92455369 15.43508616 -2.4375 17.625 C-2.77992744 19.10922966 -3.1217323 20.59360311 -3.46289062 22.078125 C-4.30137374 25.72045886 -5.14843132 29.36070426 -6 33 C-6.33 33 -6.66 33 -7 33 C-7.28243324 27.06890203 -6.80023656 22.79871186 -4.72265625 17.26171875 C-3.96775195 14.89907232 -3.69429851 12.78050443 -3.5 10.3125 C-3.17250941 6.34080566 -2.04326714 3.46467037 0 0 Z " fill="#2998CB" transform="translate(1306,841)"/>
<path d="M0 0 C1.52824248 3.05648496 0.32211053 5.78829007 -0.43359375 8.9765625 C-0.59038101 9.66181 -0.74716827 10.3470575 -0.90870667 11.05307007 C-1.41185408 13.24525822 -1.92455369 15.43508616 -2.4375 17.625 C-2.77992744 19.10922966 -3.1217323 20.59360311 -3.46289062 22.078125 C-4.30137374 25.72045886 -5.14843132 29.36070426 -6 33 C-6.33 33 -6.66 33 -7 33 C-7.28243324 27.06890203 -6.80023656 22.79871186 -4.72265625 17.26171875 C-3.96775195 14.89907232 -3.69429851 12.78050443 -3.5 10.3125 C-3.17250941 6.34080566 -2.04326714 3.46467037 0 0 Z " fill="#2998CB" transform="translate(1316,795)"/>
<path d="M0 0 C0.33 0 0.66 0 1 0 C0.58384403 9.63401065 -1.65439171 18.69393547 -4 28 C-4.33 28 -4.66 28 -5 28 C-5 25.03 -5 22.06 -5 19 C-4.34 19 -3.68 19 -3 19 C-3.01160156 18.36191406 -3.02320313 17.72382812 -3.03515625 17.06640625 C-3.04417969 16.24011719 -3.05320312 15.41382813 -3.0625 14.5625 C-3.07410156 13.73878906 -3.08570313 12.91507813 -3.09765625 12.06640625 C-3 10 -3 10 -2 9 C-1.79395915 7.67218122 -1.6337041 6.33704105 -1.5 5 C-1.11111111 1.11111111 -1.11111111 1.11111111 0 0 Z " fill="#2BA4DC" transform="translate(1272,993)"/>
<path d="M0 0 C0.33 0 0.66 0 1 0 C0.85970581 2.1462026 0.71261836 4.29196218 0.5625 6.4375 C0.48128906 7.63246094 0.40007812 8.82742188 0.31640625 10.05859375 C0 13 0 13 -1 14 C-1.19313021 15.99567879 -1.38320963 17.99209519 -1.5234375 19.9921875 C-2.10524314 22.44340142 -3.10824485 23.3915023 -5 25 C-4.38580826 16.40131562 -2.19092979 8.30515248 0 0 Z " fill="#032137" transform="translate(1395,436)"/>
<path d="M0 0 C0.33 0 0.66 0 1 0 C0.58384403 9.63401065 -1.65439171 18.69393547 -4 28 C-4.33 28 -4.66 28 -5 28 C-5.09765625 21.84765625 -5.09765625 21.84765625 -5 20 C-4.67 19.67 -4.34 19.34 -4 19 C-3.79300437 17.50503158 -3.63320741 16.0033408 -3.5 14.5 C-3.11111111 10.11111111 -3.11111111 10.11111111 -2 9 C-1.79395915 7.67218122 -1.6337041 6.33704105 -1.5 5 C-1.11111111 1.11111111 -1.11111111 1.11111111 0 0 Z " fill="#2CA6DE" transform="translate(1252,1085)"/>
<path d="M0 0 C0.33 0 0.66 0 1 0 C0.58384403 9.63401065 -1.65439171 18.69393547 -4 28 C-5.38315373 24.13301387 -4.73006194 20.81171075 -4.125 16.8125 C-3.94195313 15.56082031 -3.75890625 14.30914063 -3.5703125 13.01953125 C-3 10 -3 10 -2 9 C-1.79395915 7.67218122 -1.6337041 6.33704105 -1.5 5 C-1.11111111 1.11111111 -1.11111111 1.11111111 0 0 Z " fill="#2CA2D8" transform="translate(1356,607)"/>
<path d="M0 0 C1.3448757 2.68975139 0.71921998 3.89291421 0.00390625 6.7890625 C-0.22490234 7.73007812 -0.45371094 8.67109375 -0.68945312 9.640625 C-0.93630859 10.62546875 -1.18316406 11.6103125 -1.4375 12.625 C-1.68048828 13.61757813 -1.92347656 14.61015625 -2.17382812 15.6328125 C-2.77634643 18.09014208 -3.38531647 20.54569033 -4 23 C-4.33 23 -4.66 23 -5 23 C-5.09765625 16.84765625 -5.09765625 16.84765625 -5 15 C-4.67 14.67 -4.34 14.34 -4 14 C-3.87625 12.783125 -3.7525 11.56625 -3.625 10.3125 C-3.1929099 6.38118842 -1.98386359 3.45019755 0 0 Z " fill="#2A9ED3" transform="translate(1028,501)"/>
<path d="M0 0 C0.33 0 0.66 0 1 0 C0.49451662 8.54092606 -1.06734291 16.67377292 -3 25 C-3.33 25 -3.66 25 -4 25 C-3.85975781 22.52039864 -3.7130815 20.04147598 -3.5625 17.5625 C-3.52318359 16.85544922 -3.48386719 16.14839844 -3.44335938 15.41992188 C-3.11328125 10.11328125 -3.11328125 10.11328125 -2 9 C-1.79395915 7.67218122 -1.6337041 6.33704105 -1.5 5 C-1.11111111 1.11111111 -1.11111111 1.11111111 0 0 Z " fill="#2BA1D8" transform="translate(1262,1039)"/>
<path d="M0 0 C0.33 0 0.66 0 1 0 C0.22095672 13.6332574 0.22095672 13.6332574 -2 20 C-2.66 20 -3.32 20 -4 20 C-3.52362901 17.22865934 -3.04402451 14.45794567 -2.5625 11.6875 C-2.42779297 10.90181641 -2.29308594 10.11613281 -2.15429688 9.30664062 C-2.02216797 8.54931641 -1.89003906 7.79199219 -1.75390625 7.01171875 C-1.63345947 6.31522217 -1.5130127 5.61872559 -1.38891602 4.90112305 C-1 3 -1 3 0 0 Z " fill="#032035" transform="translate(1243,1133)"/>
<path d="M0 0 C0.33 0 0.66 0 1 0 C1.02688151 1.64574566 1.04634123 3.29161413 1.0625 4.9375 C1.07410156 5.85402344 1.08570313 6.77054688 1.09765625 7.71484375 C1 10 1 10 0 11 C-0.27953219 13.0587768 -0.44734351 15.11728432 -0.62109375 17.1875 C-0.74613281 17.785625 -0.87117188 18.38375 -1 19 C-1.66 19.33 -2.32 19.66 -3 20 C-2.51358785 13.15182898 -1.64006048 6.66957927 0 0 Z " fill="#021A2D" transform="translate(1272,998)"/>
<path d="M0 0 C0.33 0 0.66 0 1 0 C1.37634203 6.80203375 0.77471079 11.75690073 -2 18 C-3.51553092 14.02549507 -2.49888623 10.79518851 -1.5625 6.75 C-1.27503906 5.48671875 -0.98757813 4.2234375 -0.69140625 2.921875 C-0.46324219 1.95765625 -0.23507812 0.9934375 0 0 Z " fill="#2BA7DF" transform="translate(794,621)"/>
<path d="M0 0 C0.33 0 0.66 0 1 0 C1.09765625 6.15234375 1.09765625 6.15234375 1 8 C0.67 8.33 0.34 8.66 0 9 C-0.27953219 11.0587768 -0.44734351 13.11728432 -0.62109375 15.1875 C-0.74613281 15.785625 -0.87117188 16.38375 -1 17 C-1.66 17.33 -2.32 17.66 -3 18 C-2.57045059 11.74892565 -1.98598493 5.95795479 0 0 Z " fill="#021C30" transform="translate(1388,468)"/>
<path d="M0 0 C0.33 0 0.66 0 1 0 C0.54240047 6.5508985 -0.2100144 12.6753842 -2 19 C-2.33 19 -2.66 19 -3 19 C-3.02689216 17.52093108 -3.04634621 16.04172517 -3.0625 14.5625 C-3.07410156 13.73878906 -3.08570313 12.91507813 -3.09765625 12.06640625 C-3 10 -3 10 -2 9 C-1.79395915 7.67218122 -1.6337041 6.33704105 -1.5 5 C-1.11111111 1.11111111 -1.11111111 1.11111111 0 0 Z " fill="#2CA8E0" transform="translate(1282,947)"/>
<path d="M0 0 C0.66 0 1.32 0 2 0 C1.48517081 5.852795 0.54642808 11.3297637 -1 17 C-1.33 17 -1.66 17 -2 17 C-2.02689216 15.52093108 -2.04634621 14.04172517 -2.0625 12.5625 C-2.07410156 11.73878906 -2.08570313 10.91507813 -2.09765625 10.06640625 C-2 8 -2 8 -1 7 C-0.63239269 4.67182036 -0.29758419 2.3381615 0 0 Z " fill="#01192D" transform="translate(731,899)"/>
<path d="M0 0 C1.31625194 2.63250388 0.74813658 3.80179056 0.0625 6.625 C-0.13214844 7.44226563 -0.32679687 8.25953125 -0.52734375 9.1015625 C-0.68332031 9.72804688 -0.83929687 10.35453125 -1 11 C-4.37503669 9.8141763 -6.64722731 8.72426311 -9 6 C-7.02 6.66 -5.04 7.32 -3 8 C-2.690625 6.865625 -2.38125 5.73125 -2.0625 4.5625 C-1 1 -1 1 0 0 Z " fill="#2C99CB" transform="translate(1346,657)"/>
<path d="M0 0 C0.33 0 0.66 0 1 0 C0.41509121 6.14154225 -0.54066252 12.00679849 -2 18 C-2.33 18 -2.66 18 -3 18 C-2.88566637 15.74943278 -2.75813564 13.49953326 -2.625 11.25 C-2.55539062 9.99703125 -2.48578125 8.7440625 -2.4140625 7.453125 C-2.04676696 4.39001879 -1.60288714 2.58025734 0 0 Z " fill="#021E34" transform="translate(789,639)"/>
<path d="M0 0 C0.33 0 0.66 0 1 0 C0.91291962 2.10494301 0.80474307 4.20902142 0.6875 6.3125 C0.62949219 7.48425781 0.57148437 8.65601563 0.51171875 9.86328125 C-0.01604768 13.0983686 -0.42380724 14.08684881 -3 16 C-2.52013969 10.43109483 -1.70084819 5.32932432 0 0 Z " fill="#032037" transform="translate(1265,1032)"/>
<path d="M0 0 C0.33 0 0.66 0 1 0 C0.91291962 2.10494301 0.80474307 4.20902142 0.6875 6.3125 C0.62949219 7.48425781 0.57148437 8.65601563 0.51171875 9.86328125 C-0.01604768 13.0983686 -0.42380724 14.08684881 -3 16 C-2.52013969 10.43109483 -1.70084819 5.32932432 0 0 Z " fill="#032238" transform="translate(1285,940)"/>
<path d="M0 0 C0.33 0 0.66 0 1 0 C0.91291962 2.10494301 0.80474307 4.20902142 0.6875 6.3125 C0.62949219 7.48425781 0.57148437 8.65601563 0.51171875 9.86328125 C-0.01604768 13.0983686 -0.42380724 14.08684881 -3 16 C-2.52013969 10.43109483 -1.70084819 5.32932432 0 0 Z " fill="#042238" transform="translate(1295,894)"/>
<path d="M0 0 C0.33 0 0.66 0 1 0 C0.91291962 2.10494301 0.80474307 4.20902142 0.6875 6.3125 C0.62949219 7.48425781 0.57148437 8.65601563 0.51171875 9.86328125 C-0.01604768 13.0983686 -0.42380724 14.08684881 -3 16 C-2.52013969 10.43109483 -1.70084819 5.32932432 0 0 Z " fill="#032138" transform="translate(1377,518)"/>
<path d="M0 0 C0.33 0 0.66 0 1 0 C0.91291962 2.10494301 0.80474307 4.20902142 0.6875 6.3125 C0.62949219 7.48425781 0.57148437 8.65601563 0.51171875 9.86328125 C-0.01604768 13.0983686 -0.42380724 14.08684881 -3 16 C-2.52013969 10.43109483 -1.70084819 5.32932432 0 0 Z " fill="#042239" transform="translate(1025,517)"/>
<path d="M0 0 C0.33 0 0.66 0 1 0 C0.41509121 6.14154225 -0.54066252 12.00679849 -2 18 C-2.33 18 -2.66 18 -3 18 C-2.88566637 15.74943278 -2.75813564 13.49953326 -2.625 11.25 C-2.55539062 9.99703125 -2.48578125 8.7440625 -2.4140625 7.453125 C-2.04676696 4.39001879 -1.60288714 2.58025734 0 0 Z " fill="#021F35" transform="translate(853,345)"/>
<path d="M0 0 C0.90550946 3.01150495 1.06723758 5.43770987 0.75 8.5625 C0.68296875 9.32691406 0.6159375 10.09132813 0.546875 10.87890625 C-0.09694852 13.37602176 -1.05228884 14.36120002 -3 16 C-2.40984815 10.49191603 -1.43336231 5.35121931 0 0 Z " fill="#04243B" transform="translate(927,955)"/>
<path d="M0 0 C1.58272601 3.16545202 0.33086619 5.74418878 -0.4375 9.125 C-0.72496094 10.40632812 -1.01242187 11.68765625 -1.30859375 13.0078125 C-1.53675781 13.99523437 -1.76492188 14.98265625 -2 16 C-2.33 16 -2.66 16 -3 16 C-3.32712342 9.86946489 -3.39366878 5.37330889 0 0 Z " fill="#2593C5" transform="translate(1350,639)"/>
<path d="M0 0 C1.58272601 3.16545202 0.33086619 5.74418878 -0.4375 9.125 C-0.72496094 10.40632813 -1.01242187 11.68765625 -1.30859375 13.0078125 C-1.53675781 13.99523437 -1.76492188 14.98265625 -2 16 C-2.33 16 -2.66 16 -3 16 C-3.32712342 9.86946489 -3.39366878 5.37330889 0 0 Z " fill="#2695C7" transform="translate(1382,493)"/>
<path d="M0 0 C1.58272601 3.16545202 0.33086619 5.74418878 -0.4375 9.125 C-0.72496094 10.40632813 -1.01242187 11.68765625 -1.30859375 13.0078125 C-1.53675781 13.99523437 -1.76492188 14.98265625 -2 16 C-2.33 16 -2.66 16 -3 16 C-3.32712342 9.86946489 -3.39366878 5.37330889 0 0 Z " fill="#2693C5" transform="translate(1400,411)"/>
<path d="M0 0 C2.97 1.65 5.94 3.3 9 5 C8.01 5.495 8.01 5.495 7 6 C4.96855359 5.06553465 2.96466413 4.06775224 1 3 C0.34 4.32 -0.32 5.64 -1 7 C-1.04254356 5.00045254 -1.04080783 2.99958364 -1 1 C-0.67 0.67 -0.34 0.34 0 0 Z " fill="#2E9BCE" transform="translate(756,795)"/>
<path d="M0 0 C1.49341969 2.98683937 0.40648676 4.95160978 -0.4375 8.125 C-0.72496094 9.22070312 -1.01242187 10.31640625 -1.30859375 11.4453125 C-1.53675781 12.28835938 -1.76492188 13.13140625 -2 14 C-2.33 14 -2.66 14 -3 14 C-3.29341888 8.32723489 -3.00559652 5.00932754 0 0 Z " fill="#2A9FD4" transform="translate(1244,1126)"/>
<path d="M0 0 C1.49341969 2.98683937 0.40648676 4.95160978 -0.4375 8.125 C-0.72496094 9.22070312 -1.01242187 10.31640625 -1.30859375 11.4453125 C-1.53675781 12.28835938 -1.76492188 13.13140625 -2 14 C-2.33 14 -2.66 14 -3 14 C-3.29341888 8.32723489 -3.00559652 5.00932754 0 0 Z " fill="#2A9DD2" transform="translate(1266,1025)"/>
<path d="M0 0 C1.49341969 2.98683937 0.40648676 4.95160978 -0.4375 8.125 C-0.72496094 9.22070312 -1.01242187 10.31640625 -1.30859375 11.4453125 C-1.53675781 12.28835938 -1.76492188 13.13140625 -2 14 C-2.33 14 -2.66 14 -3 14 C-3.29341888 8.32723489 -3.00559652 5.00932754 0 0 Z " fill="#2A9ED3" transform="translate(1276,979)"/>
<path d="M0 0 C1.49341969 2.98683937 0.40648676 4.95160978 -0.4375 8.125 C-0.72496094 9.22070312 -1.01242187 10.31640625 -1.30859375 11.4453125 C-1.53675781 12.28835938 -1.76492188 13.13140625 -2 14 C-2.33 14 -2.66 14 -3 14 C-3.29341888 8.32723489 -3.00559652 5.00932754 0 0 Z " fill="#2A9ED4" transform="translate(1296,887)"/>
<path d="M0 0 C0.33 0 0.66 0 1 0 C1.08121924 1.60332791 1.13929134 3.20784026 1.1875 4.8125 C1.23970703 6.15248047 1.23970703 6.15248047 1.29296875 7.51953125 C0.95081002 10.41647515 0.24606427 11.22555028 -2 13 C-1.85769192 11.58297487 -1.71099254 10.1663904 -1.5625 8.75 C-1.48128906 7.96109375 -1.40007812 7.1721875 -1.31640625 6.359375 C-1.02365007 4.17635361 -0.57935581 2.1226818 0 0 Z " fill="#05263D" transform="translate(1358,603)"/>
<path d="M0 0 C1.49341969 2.98683937 0.40648676 4.95160978 -0.4375 8.125 C-0.72496094 9.22070312 -1.01242187 10.31640625 -1.30859375 11.4453125 C-1.53675781 12.28835938 -1.76492188 13.13140625 -2 14 C-2.33 14 -2.66 14 -3 14 C-3.29341888 8.32723489 -3.00559652 5.00932754 0 0 Z " fill="#2A9ED4" transform="translate(1362,584)"/>
<path d="M0 0 C1.49341969 2.98683937 0.40648676 4.95160978 -0.4375 8.125 C-0.72496094 9.22070312 -1.01242187 10.31640625 -1.30859375 11.4453125 C-1.53675781 12.28835938 -1.76492188 13.13140625 -2 14 C-2.33 14 -2.66 14 -3 14 C-3.29341888 8.32723489 -3.00559652 5.00932754 0 0 Z " fill="#2AA0D5" transform="translate(1378,511)"/>
<path d="M0 0 C0.33 0 0.66 0 1 0 C0.88557539 1.60495567 0.75805306 3.20898119 0.625 4.8125 C0.55539062 5.70582031 0.48578125 6.59914063 0.4140625 7.51953125 C0 10 0 10 -2 13 C-2.05447047 11.58376784 -2.09300508 10.16691809 -2.125 8.75 C-2.14820313 7.96109375 -2.17140625 7.1721875 -2.1953125 6.359375 C-1.9828378 3.79268059 -1.28654105 2.2083933 0 0 Z " fill="#011A2E" transform="translate(817,510)"/>
<path d="M0 0 C1.49341969 2.98683937 0.40648676 4.95160978 -0.4375 8.125 C-0.72496094 9.22070312 -1.01242187 10.31640625 -1.30859375 11.4453125 C-1.53675781 12.28835938 -1.76492188 13.13140625 -2 14 C-2.33 14 -2.66 14 -3 14 C-3.29341888 8.32723489 -3.00559652 5.00932754 0 0 Z " fill="#2B9ED3" transform="translate(1396,429)"/>
<path d="M0 0 C0.33 0 0.66 0 1 0 C1.08131463 1.43655854 1.13933559 2.8744483 1.1875 4.3125 C1.23970703 5.51326172 1.23970703 5.51326172 1.29296875 6.73828125 C0.93801608 9.47851584 0.10633718 10.29171079 -2 12 C-1.85831863 10.56208484 -1.71148957 9.1246763 -1.5625 7.6875 C-1.48128906 6.88699219 -1.40007812 6.08648438 -1.31640625 5.26171875 C-1 3 -1 3 0 0 Z " fill="#022136" transform="translate(1254,1082)"/>
<path d="M0 0 C0.33 0 0.66 0 1 0 C0.03644647 9.41002278 0.03644647 9.41002278 -1 14 C-1.33 14 -1.66 14 -2 14 C-2.3690205 4.58997722 -2.3690205 4.58997722 0 0 Z " fill="#2BA6DE" transform="translate(1301,860)"/>
<path d="M0 0 C0.33 0 0.66 0 1 0 C0.03644647 9.41002278 0.03644647 9.41002278 -1 14 C-1.33 14 -1.66 14 -2 14 C-2.3690205 4.58997722 -2.3690205 4.58997722 0 0 Z " fill="#2BA7DF" transform="translate(1311,814)"/>
<path d="M0 0 C0.99 0.33 1.98 0.66 3 1 C2.34 4.3 1.68 7.6 1 11 C0.67 11 0.34 11 0 11 C0 7.37 0 3.74 0 0 Z " fill="#2EA9E0" transform="translate(935,906)"/>
<path d="M0 0 C0.33 0 0.66 0 1 0 C1.36923077 7.50769231 1.36923077 7.50769231 -0.5 10 C-0.995 10.33 -1.49 10.66 -2 11 C-1.125 3.375 -1.125 3.375 0 0 Z " fill="#032034" transform="translate(930,942)"/>
<path d="M0 0 C0.33 0 0.66 0 1 0 C1.33 3.63 1.66 7.26 2 11 C1.01 10.67 0.02 10.34 -1 10 C-0.67 6.7 -0.34 3.4 0 0 Z " fill="#30A8DF" transform="translate(1164,546)"/>
<path d="M0 0 C0.33 0 0.66 0 1 0 C1.36923077 6.52307692 1.36923077 6.52307692 -0.5 8.9375 C-0.995 9.288125 -1.49 9.63875 -2 10 C-1.125 2.25 -1.125 2.25 0 0 Z " fill="#031E32" transform="translate(938,907)"/>
</svg>
